<svg id="Layer_1" enable-background="new 0 0 1560 1560" viewBox="0 0 1560 1560" xmlns="http://www.w3.org/2000/svg"><g><g><g><g><path d="m779.8 1556c-17.7 0-32-14.3-32-32v-1410.7l-194.2 194.2c-12.5 12.5-32.8 12.5-45.3 0s-12.5-32.8 0-45.3l248.9-248.9c9.2-9.2 22.9-11.9 34.9-6.9s19.8 16.6 19.8 29.6v1488c-.1 17.7-14.4 32-32.1 32z"></path></g><g><path d="m1029 317.2c-8.2 0-16.4-3.1-22.6-9.4l-249.2-249.2c-12.5-12.5-12.5-32.8 0-45.3s32.8-12.5 45.3 0l249.2 249.2c12.5 12.5 12.5 32.8 0 45.3-6.3 6.3-14.5 9.4-22.7 9.4z"></path></g></g></g></g></svg>